<svg width="298" height="63" viewBox="0 0 298 63" fill="none" xmlns="http://www.w3.org/2000/svg">
<path d="M14.132 50H0.22V0.419999H27.674C39.44 0.419999 46.84 7.154 46.84 18.92C46.84 30.686 39.44 37.494 27.674 37.494H14.132V50ZM26.12 12.926H14.132V24.988H26.12C31.004 24.988 33.002 24.026 33.002 18.92C33.002 13.888 31.004 12.926 26.12 12.926ZM68.9602 50.74C56.0102 50.74 47.2042 43.414 47.2042 31.352C47.2042 19.216 56.0102 11.964 68.9602 11.964C81.9102 11.964 90.7162 19.216 90.7162 31.352C90.7162 43.414 81.9102 50.74 68.9602 50.74ZM68.9602 38.456C75.2502 38.456 76.9522 36.754 76.9522 31.352C76.9522 25.95 75.2502 24.174 68.9602 24.174C62.6702 24.174 60.9682 25.95 60.9682 31.352C60.9682 36.754 62.6702 38.456 68.9602 38.456ZM112.632 50.74C99.4604 50.74 92.4304 45.634 92.4304 37.05V36.754H106.342V37.494C106.342 39.566 107.674 39.788 112.706 39.788C117.516 39.788 118.256 39.27 118.256 38.012C118.256 36.828 117.664 36.532 114.186 36.162L103.382 34.978C95.6864 34.164 91.5424 30.538 91.5424 24.248C91.5424 17.662 96.7964 11.964 110.782 11.964C123.732 11.964 130.614 16.626 130.614 25.802V26.098H116.702V25.654C116.702 23.73 115.962 22.842 110.338 22.842C105.824 22.842 105.232 23.434 105.232 24.84C105.232 25.876 105.824 26.394 110.19 26.838L117.59 27.652C128.468 28.836 131.946 32.462 131.946 38.752C131.946 45.708 124.99 50.74 112.632 50.74ZM161.705 50H151.937C142.613 50 137.063 45.486 137.063 35.792V24.1H131.587V12.704H137.063V6.266H150.975V12.704H161.705V24.1H150.975V33.794C150.975 36.754 151.863 37.494 155.045 37.494H161.705V50ZM177.458 50H163.546V0.419999H177.458V50ZM188.636 62.58H181.902V50H192.706C193.816 50 194.704 49.852 195.296 49.556L177.462 12.704H193.298L199.736 27.356L202.4 35.94H203.362L205.804 27.208L211.354 12.704H226.894L209.208 51.48C205.212 60.286 199.514 62.58 188.636 62.58ZM244.02 50H230.108V24.1H225.076V12.704H230.404C231.884 5.674 238.766 0.419999 250.976 0.419999H253.936V10.336H248.756C244.908 10.336 243.058 10.706 243.132 12.704H253.936V24.1H244.02V50ZM276.23 50.74C263.576 50.74 254.696 45.338 254.696 31.352C254.696 19.216 263.502 11.964 275.934 11.964C288.81 11.964 297.024 18.402 297.024 30.39C297.024 31.648 296.95 32.61 296.802 33.942H267.572C267.794 38.456 269.792 39.714 275.712 39.714C281.336 39.714 282.816 38.752 282.816 36.532V35.718H296.728V36.606C296.728 44.894 288.81 50.74 276.23 50.74ZM275.638 22.62C270.532 22.62 268.386 23.73 267.794 26.912H283.556C283.038 23.73 280.818 22.62 275.638 22.62Z" fill="#025951"/>
</svg>
